{"title":"Dark Matter S03E01E02 720p HDTV HEVC 2CH x265","magnet":"magnet:?xt=urn:btih:9ae872d011f2fad83ba8f63e894387036fca20a7&dn=Dark+Matter+S03E01E02+720p+HDTV+HEVC+2CH+x265&tr=udp%3A%2F%2Ftracker.leechers-paradise.org%3A6969&tr=udp%3A%2F%2Fzer0day.ch%3A1337&tr=udp%3A%2F%2Fopen.demonii.com%3A1337&tr=udp%3A%2F%2Ftracker.coppersurfer.tk%3A6969&tr=udp%3A%2F%2Fexodus.desync.com%3A6969","uploader":"nayhtut","categoryP":"video","categoryS":"hd___tv_shows","size":"690316657","seeders":"304","leechers":"157","description":"Source: Dark Matter S03E01 720p HDTV x264-AVS (1.43 GB)\r\n\r\n\r\n\r\nComplete name: Dark.Matter.S03E01E02.720p.HDTV.HEVC.2CH.x265.mkv\r\nFormat                                   : Matroska\r\nFormat version                           : Version 4 / Version 2\r\nFile size                                : 658 MiB\r\nDuration                                 : 1h 24mn\r\nOverall bit rate                         : 1 086 Kbps\r\nWriting application                      : Lavf57.25.100\r\n\r\nVideo\r\n\r\nID                                       : 1\r\nFormat                                   : V_MPEGH/ISO/HEVC\r\nDuration                                 : 1h 24mn\r\nBit rate                                 : 840 Kbps\r\nWidth                                    : 1 280 pixels\r\nHeight                                   : 718 pixels\r\nDisplay aspect ratio                     : 16:9\r\nFrame rate                               : 25.000 fps\r\nBits/(Pixel*Frame)                       : 0.037\r\nStream size                              : 509 MiB (77%)\r\nDefault                                  : Yes\r\nForced                                   : No\r\nDURATION                                 : 01:24:44.891000000\r\n\r\nAudio\r\n\r\nID                                       : 2\r\nFormat                                   : AC-3\r\nFormat/Info                              : Audio Coding 3\r\nMode extension                           : CM (complete main)\r\nFormat settings, Endianness              : Big\r\nCodec ID                                 : A_AC3\r\nDuration                                 : 1h 24mn\r\nBit rate mode                            : Constant\r\nBit rate                                 : 224 Kbps\r\nChannel(s)                               : 2 channels\r\nChannel positions                        : Front: L R\r\nSampling rate                            : 48.0 KHz\r\nBit depth                                : 32 bits\r\nCompression mode                         : Lossy\r\nStream size                              : 136 MiB (21%)\r\nWriting library                          : Lavc57.24.102 ac3\r\nDefault                                  : Yes\r\nForced                                   : No\r\nDURATION                                 : 01:24:44.895000000","last_updated":"2017-06-10T12:03:38.143Z","parsed":{"xt":"urn:btih:9ae872d011f2fad83ba8f63e894387036fca20a7","dn":"Dark Matter S03E01E02 720p HDTV HEVC 2CH x265","tr":["udp://exodus.desync.com:6969","udp://open.demonii.com:1337","udp://tracker.coppersurfer.tk:6969","udp://tracker.leechers-paradise.org:6969","udp://zer0day.ch:1337"],"infoHash":"9ae872d011f2fad83ba8f63e894387036fca20a7","infoHashBuffer":{"type":"Buffer","data":[154,232,114,208,17,242,250,216,59,168,246,62,137,67,135,3,111,202,32,167]},"name":"Dark Matter S03E01E02 720p HDTV HEVC 2CH x265","announce":["udp://exodus.desync.com:6969","udp://open.demonii.com:1337","udp://tracker.coppersurfer.tk:6969","udp://tracker.leechers-paradise.org:6969","udp://zer0day.ch:1337"],"urlList":[]}}